HIERARCHY
ROOT newVegas:Hips
{
	OFFSET 0.000000 96.479958 0.000000
	CHANNELS 6 Xposition Yposition Zposition Xrotation Yrotation Zrotation
	JOINT newVegas:Pelvis
	{
		OFFSET 0.000000 0.000000 0.000000
		CHANNELS 3 Xrotation Yrotation Zrotation
		JOINT newVegas:LeftUpLeg
		{
			OFFSET 18.735201 -5.666702 -4.541200
			CHANNELS 3 Xrotation Yrotation Zrotation
			JOINT newVegas:LeftLeg
			{
				OFFSET -0.021200 -31.938179 0.493100
				CHANNELS 3 Xrotation Yrotation Zrotation
				JOINT newVegas:LeftFoot
				{
					OFFSET 0.021200 -31.938179 -4.336299
					CHANNELS 3 Xrotation Yrotation Zrotation
					JOINT newVegas:LeftToeBase
					{
						OFFSET 0.943001 -26.722000 15.023500
						CHANNELS 3 Xrotation Yrotation Zrotation
						End Site
						{
							OFFSET 0.000000 30.670183 0.000000
						}
					}
				}
				JOINT newVegas:Left_PantLeg
				{
					OFFSET 0.663870 -9.044666 -1.108900
					CHANNELS 3 Xrotation Yrotation Zrotation
					End Site
					{
						OFFSET 1.415995 20.635357 0.000000
					}
				}
			}
		}
		JOINT newVegas:RightUpLeg
		{
			OFFSET -18.735201 -5.666702 -4.541200
			CHANNELS 3 Xrotation Yrotation Zrotation
			JOINT newVegas:RightLeg
			{
				OFFSET 0.018946 -31.938133 0.493100
				CHANNELS 3 Xrotation Yrotation Zrotation
				JOINT newVegas:RightFoot
				{
					OFFSET -0.018946 -31.938126 -4.336299
					CHANNELS 3 Xrotation Yrotation Zrotation
					JOINT newVegas:RightToeBase
					{
						OFFSET -0.943001 -26.722004 15.023500
						CHANNELS 3 Xrotation Yrotation Zrotation
						End Site
						{
							OFFSET 0.000000 30.670187 0.000000
						}
					}
				}
				JOINT newVegas:Right_PantLeg
				{
					OFFSET -0.661674 -9.044716 -1.108900
					CHANNELS 3 Xrotation Yrotation Zrotation
					End Site
					{
						OFFSET -1.415958 20.635269 0.000000
					}
				}
			}
		}
	}
	JOINT newVegas:Spine
	{
		OFFSET 0.000000 10.199997 -0.299500
		CHANNELS 3 Xrotation Yrotation Zrotation
		JOINT newVegas:Spine1
		{
			OFFSET 0.000000 11.900002 -1.516600
			CHANNELS 3 Xrotation Yrotation Zrotation
			JOINT newVegas:Spine2
			{
				OFFSET 0.000000 13.600006 -2.842500
				CHANNELS 3 Xrotation Yrotation Zrotation
				JOINT newVegas:Neck
				{
					OFFSET 0.000000 9.624100 -2.890100
					CHANNELS 3 Xrotation Yrotation Zrotation
					JOINT newVegas:Head
					{
						OFFSET 0.000000 14.068802 -1.351900
						CHANNELS 3 Xrotation Yrotation Zrotation
						JOINT newVegas:Hair_Back
						{
							OFFSET 0.000000 3.231903 -17.524799
							CHANNELS 3 Xrotation Yrotation Zrotation
							End Site
							{
								OFFSET 0.000000 19.849884 0.000000
							}
						}
						JOINT newVegas:Hair_Front
						{
							OFFSET 0.000000 31.260406 4.573800
							CHANNELS 3 Xrotation Yrotation Zrotation
							JOINT newVegas:Hair_Front1
							{
								OFFSET 0.000000 2.284103 11.993300
								CHANNELS 3 Xrotation Yrotation Zrotation
								JOINT newVegas:Hair_Front2
								{
									OFFSET 0.000000 2.284103 11.993300
									CHANNELS 3 Xrotation Yrotation Zrotation
									End Site
									{
										OFFSET 0.000000 12.208862 0.000000
									}
								}
							}
						}
						JOINT newVegas:Jowel
						{
							OFFSET 0.000000 -7.458206 6.864100
							CHANNELS 3 Xrotation Yrotation Zrotation
							End Site
							{
								OFFSET 0.000000 19.849884 0.000000
							}
						}
					}
				}
				JOINT newVegas:LeftShoulder
				{
					OFFSET 15.263000 10.923401 -0.547700
					CHANNELS 3 Xrotation Yrotation Zrotation
					JOINT newVegas:LeftArm
					{
						OFFSET 25.438599 -2.830597 -13.032500
						CHANNELS 3 Xrotation Yrotation Zrotation
						JOINT newVegas:LeftForeArm
						{
							OFFSET 29.960503 0.000000 0.000000
							CHANNELS 3 Xrotation Yrotation Zrotation
							JOINT newVegas:LeftHand
							{
								OFFSET 27.849251 0.000000 0.000000
								CHANNELS 3 Xrotation Yrotation Zrotation
								JOINT newVegas:LeftHandThumb1
								{
									OFFSET 4.487587 -3.305161 6.305391
									CHANNELS 3 Xrotation Yrotation Zrotation
									JOINT newVegas:LeftHandThumb2
									{
										OFFSET 5.480453 -3.164139 3.164143
										CHANNELS 3 Xrotation Yrotation Zrotation
										JOINT newVegas:LeftHandThumb3
										{
											OFFSET 5.159721 -2.978973 2.978967
											CHANNELS 3 Xrotation Yrotation Zrotation
											End Site
											{
												OFFSET 2.494507 5.926697 1.738678
											}
										}
									}
								}
								JOINT newVegas:LeftHandIndex1
								{
									OFFSET 18.578728 -0.527832 5.208049
									CHANNELS 3 Xrotation Yrotation Zrotation
									JOINT newVegas:LeftHandIndex2
									{
										OFFSET 3.192009 0.000000 0.000000
										CHANNELS 3 Xrotation Yrotation Zrotation
										JOINT newVegas:LeftHandIndex3
										{
											OFFSET 3.835129 0.000000 0.000000
											CHANNELS 3 Xrotation Yrotation Zrotation
											End Site
											{
												OFFSET -0.034599 3.816971 0.371180
											}
										}
									}
								}
								JOINT newVegas:LeftHandMiddle1
								{
									OFFSET 18.476105 0.000000 0.000000
									CHANNELS 3 Xrotation Yrotation Zrotation
									JOINT newVegas:LeftHandMiddle2
									{
										OFFSET 3.324875 0.000000 0.000000
										CHANNELS 3 Xrotation Yrotation Zrotation
										JOINT newVegas:LeftHandMiddle3
										{
											OFFSET 4.596550 0.000000 0.000000
											CHANNELS 3 Xrotation Yrotation Zrotation
											End Site
											{
												OFFSET 0.057701 4.578827 0.399218
											}
										}
									}
								}
								JOINT newVegas:LeftHandRing1
								{
									OFFSET 17.732719 0.121887 -4.201567
									CHANNELS 3 Xrotation Yrotation Zrotation
									JOINT newVegas:LeftHandRing2
									{
										OFFSET 2.733170 0.000000 0.000000
										CHANNELS 3 Xrotation Yrotation Zrotation
										JOINT newVegas:LeftHandRing3
										{
											OFFSET 3.178268 0.000000 0.000000
											CHANNELS 3 Xrotation Yrotation Zrotation
											End Site
											{
												OFFSET 0.119102 3.170624 0.185394
											}
										}
									}
								}
								JOINT newVegas:LeftHandPinky1
								{
									OFFSET 15.989624 -0.606689 -7.535461
									CHANNELS 3 Xrotation Yrotation Zrotation
									JOINT newVegas:LeftHandPinky2
									{
										OFFSET 2.538986 0.000000 0.000000
										CHANNELS 3 Xrotation Yrotation Zrotation
										JOINT newVegas:LeftHandPinky3
										{
											OFFSET 2.593102 0.000000 0.000000
											CHANNELS 3 Xrotation Yrotation Zrotation
											End Site
											{
												OFFSET -0.150902 2.584198 0.152708
											}
										}
									}
								}
							}
							JOINT newVegas:Left_Sleeve
							{
								OFFSET 0.267448 -0.649796 0.577675
								CHANNELS 3 Xrotation Yrotation Zrotation
								End Site
								{
									OFFSET 0.000000 15.991241 0.000000
								}
							}
							JOINT newVegas:Left_CapeC
							{
								OFFSET 15.715958 -8.608795 -6.935905
								CHANNELS 3 Xrotation Yrotation Zrotation
								JOINT newVegas:Left_CapeC1
								{
									OFFSET 0.000000 -8.688499 0.000000
									CHANNELS 3 Xrotation Yrotation Zrotation
									End Site
									{
										OFFSET 0.000000 8.688499 0.000000
									}
								}
							}
						}
						JOINT newVegas:Left_CapeB
						{
							OFFSET 26.118385 -8.608795 -7.079235
							CHANNELS 3 Xrotation Yrotation Zrotation
							JOINT newVegas:Left_CapeB1
							{
								OFFSET 0.000000 -8.688499 0.000000
								CHANNELS 3 Xrotation Yrotation Zrotation
								End Site
								{
									OFFSET 0.000000 8.688499 0.000000
								}
							}
						}
						JOINT newVegas:Left_CapeA
						{
							OFFSET 5.115639 -8.608795 -10.395809
							CHANNELS 3 Xrotation Yrotation Zrotation
							JOINT newVegas:Left_CapeA1
							{
								OFFSET 0.000000 -8.688499 0.000000
								CHANNELS 3 Xrotation Yrotation Zrotation
								End Site
								{
									OFFSET 0.000000 8.688499 0.000000
								}
							}
						}
					}
				}
				JOINT newVegas:RightShoulder
				{
					OFFSET -15.263000 10.923401 -0.547700
					CHANNELS 3 Xrotation Yrotation Zrotation
					JOINT newVegas:RightArm
					{
						OFFSET -25.438599 -2.830597 -13.032500
						CHANNELS 3 Xrotation Yrotation Zrotation
						JOINT newVegas:RightForeArm
						{
							OFFSET -29.960503 0.000000 0.000000
							CHANNELS 3 Xrotation Yrotation Zrotation
							JOINT newVegas:RightHand
							{
								OFFSET -27.849251 0.000000 0.000000
								CHANNELS 3 Xrotation Yrotation Zrotation
								JOINT newVegas:RightHandThumb1
								{
									OFFSET -4.487587 -3.305161 6.305391
									CHANNELS 3 Xrotation Yrotation Zrotation
									JOINT newVegas:RightHandThumb2
									{
										OFFSET -5.480453 -3.164139 3.164143
										CHANNELS 3 Xrotation Yrotation Zrotation
										JOINT newVegas:RightHandThumb3
										{
											OFFSET -5.159721 -2.978973 2.978967
											CHANNELS 3 Xrotation Yrotation Zrotation
											End Site
											{
												OFFSET -2.494507 5.926697 1.738678
											}
										}
									}
								}
								JOINT newVegas:RightHandIndex1
								{
									OFFSET -18.578728 -0.527832 5.208049
									CHANNELS 3 Xrotation Yrotation Zrotation
									JOINT newVegas:RightHandIndex2
									{
										OFFSET -3.192009 0.000000 0.000000
										CHANNELS 3 Xrotation Yrotation Zrotation
										JOINT newVegas:RightHandIndex3
										{
											OFFSET -3.835129 0.000000 0.000000
											CHANNELS 3 Xrotation Yrotation Zrotation
											End Site
											{
												OFFSET 0.034599 3.816971 0.371180
											}
										}
									}
								}
								JOINT newVegas:RightHandMiddle1
								{
									OFFSET -18.476105 0.000000 0.000000
									CHANNELS 3 Xrotation Yrotation Zrotation
									JOINT newVegas:RightHandMiddle2
									{
										OFFSET -3.324875 0.000000 0.000000
										CHANNELS 3 Xrotation Yrotation Zrotation
										JOINT newVegas:RightHandMiddle3
										{
											OFFSET -4.596550 0.000000 0.000000
											CHANNELS 3 Xrotation Yrotation Zrotation
											End Site
											{
												OFFSET -0.057701 4.578827 0.399218
											}
										}
									}
								}
								JOINT newVegas:RightHandRing1
								{
									OFFSET -17.732719 0.121887 -4.201567
									CHANNELS 3 Xrotation Yrotation Zrotation
									JOINT newVegas:RightHandRing2
									{
										OFFSET -2.733170 0.000000 0.000000
										CHANNELS 3 Xrotation Yrotation Zrotation
										JOINT newVegas:RightHandRing3
										{
											OFFSET -3.178268 0.000000 0.000000
											CHANNELS 3 Xrotation Yrotation Zrotation
											End Site
											{
												OFFSET -0.119102 3.170624 0.185394
											}
										}
									}
								}
								JOINT newVegas:RightHandPinky1
								{
									OFFSET -15.989624 -0.606689 -7.535461
									CHANNELS 3 Xrotation Yrotation Zrotation
									JOINT newVegas:RightHandPinky2
									{
										OFFSET -2.538986 0.000000 0.000000
										CHANNELS 3 Xrotation Yrotation Zrotation
										JOINT newVegas:RightHandPinky3
										{
											OFFSET -2.593102 0.000000 0.000000
											CHANNELS 3 Xrotation Yrotation Zrotation
											End Site
											{
												OFFSET 0.150902 2.584198 0.152708
											}
										}
									}
								}
							}
							JOINT newVegas:Right_CapeC
							{
								OFFSET -15.715958 -8.608795 -6.935905
								CHANNELS 3 Xrotation Yrotation Zrotation
								JOINT newVegas:Right_CapeC1
								{
									OFFSET 0.000000 -8.688499 0.000000
									CHANNELS 3 Xrotation Yrotation Zrotation
									End Site
									{
										OFFSET 0.000000 8.688499 0.000000
									}
								}
							}
							JOINT newVegas:Right_Sleeve
							{
								OFFSET -0.267448 -0.649994 0.577675
								CHANNELS 3 Xrotation Yrotation Zrotation
								End Site
								{
									OFFSET 0.000000 15.991302 0.000000
								}
							}
						}
						JOINT newVegas:Right_CapeA
						{
							OFFSET -5.115540 -8.608795 -10.395824
							CHANNELS 3 Xrotation Yrotation Zrotation
							JOINT newVegas:Right_CapeA1
							{
								OFFSET 0.000000 -8.688499 0.000000
								CHANNELS 3 Xrotation Yrotation Zrotation
								End Site
								{
									OFFSET 0.000000 8.688499 0.000000
								}
							}
						}
						JOINT newVegas:Right_CapeB
						{
							OFFSET -26.118187 -8.608795 -7.079266
							CHANNELS 3 Xrotation Yrotation Zrotation
							JOINT newVegas:Right_CapeB1
							{
								OFFSET 0.000000 -8.688499 0.000000
								CHANNELS 3 Xrotation Yrotation Zrotation
								End Site
								{
									OFFSET 0.000000 8.688499 0.000000
								}
							}
						}
					}
				}
				JOINT newVegas:Left_Collar
				{
					OFFSET 18.625099 8.655502 8.828100
					CHANNELS 3 Xrotation Yrotation Zrotation
					JOINT newVegas:Left_Collar1
					{
						OFFSET 14.783401 10.540405 -1.259500
						CHANNELS 3 Xrotation Yrotation Zrotation
						End Site
						{
							OFFSET 0.000000 18.199875 0.000000
						}
					}
				}
				JOINT newVegas:Collar_Back
				{
					OFFSET 0.000000 15.630707 -20.132601
					CHANNELS 3 Xrotation Yrotation Zrotation
					End Site
					{
						OFFSET 0.000000 22.523010 0.000000
					}
				}
				JOINT newVegas:Left_Peck
				{
					OFFSET 17.239599 -5.132599 25.482599
					CHANNELS 3 Xrotation Yrotation Zrotation
					End Site
					{
						OFFSET 0.000000 22.523010 0.000000
					}
				}
				JOINT newVegas:Right_Peck
				{
					OFFSET -17.239599 -5.132202 25.482599
					CHANNELS 3 Xrotation Yrotation Zrotation
					End Site
					{
						OFFSET 0.000000 22.523010 0.000000
					}
				}
				JOINT newVegas:Right_Collar
				{
					OFFSET -18.625099 8.655792 8.828100
					CHANNELS 3 Xrotation Yrotation Zrotation
					JOINT newVegas:Right_Collar1
					{
						OFFSET -14.783401 10.539993 -1.259500
						CHANNELS 3 Xrotation Yrotation Zrotation
						End Site
						{
							OFFSET 0.000000 18.199631 0.000000
						}
					}
				}
			}
		}
		JOINT newVegas:Belly
		{
			OFFSET 0.000000 -6.540398 9.014299
			CHANNELS 3 Xrotation Yrotation Zrotation
			End Site
			{
				OFFSET 0.000000 11.566666 0.000000
			}
		}
	}
	JOINT newVegas:ElvisFacialAnim_Joint
	{
		OFFSET 1.000000 -95.330101 -8.825800
		CHANNELS 3 Xrotation Yrotation Zrotation
		End Site
		{
			OFFSET 0.000000 35.315800 0.000000
		}
	}
}
MOTION
Frames: 4
Frame Time: 0.033333
-3.714374 80.009056 5.310911 170.919419 34.134130 -171.301950 0.000000 0.000002 -0.000000 -69.678755 3.788747 0.473358 67.152248 -0.476449 -2.272041 10.485185 6.615879 2.676658 0.000000 0.000001 0.000000 0.000000 0.000000 -0.000000 -3.379845 -28.364051 20.700292 50.887604 -2.855195 1.544168 -33.897273 -12.909961 2.437515 0.000000 0.000000 -0.000002 -0.000001 -0.000003 0.000001 7.077964 2.675841 -4.883630 14.329691 4.305085 -9.636214 14.329698 4.305092 -9.636219 2.278333 -0.094316 -1.022472 2.278333 -0.094312 -1.022492 -0.000001 0.000000 -0.000001 2.278358 -0.094365 -1.022466 2.278333 -0.094268 -1.022484 0.000002 0.000000 0.000001 -0.000001 0.000000 -0.000001 1.238307 -13.000543 -26.434118 -54.796258 -52.327937 -69.184653 4.343982 -125.612629 5.623683 -0.559661 -2.907063 34.836430 -20.060049 -17.693187 -13.151307 -1.067064 0.182835 1.946089 0.000006 -0.000001 -0.000003 5.776122 -9.584543 -10.641313 0.033754 0.666544 -10.636477 -0.000003 0.000000 -0.000001 1.641876 7.127190 -4.239652 -0.187947 -0.789355 -15.969039 -0.000001 0.000000 0.000001 1.677298 11.039964 -8.046058 -0.183084 -2.876877 -23.912149 -0.000001 0.000001 -0.000000 0.734581 28.047552 -16.218774 -0.849507 -6.142177 -29.148249 -0.000002 -0.000005 0.000000 -0.000000 0.000003 -0.000000 -0.000000 0.000003 -0.000000 -0.000001 0.000003 -0.000001 0.000001 0.000002 -0.000002 0.000001 0.000001 -0.000003 0.000001 0.000002 -0.000002 -0.000000 0.000001 -0.000001 1.431806 11.942719 18.144158 -65.661375 42.574604 61.291440 -0.787325 122.831731 -2.972954 -20.349826 -0.946296 -23.856186 -4.978408 12.391679 9.407253 -1.210140 -0.220438 -2.121010 -0.000000 -0.000001 -0.000000 10.258614 13.576548 6.067464 0.012515 -0.647892 4.076569 0.000000 -0.000000 0.000000 -1.738484 -1.670993 3.393777 -0.252703 0.798111 21.448292 -0.000000 -0.000003 0.000000 -0.824265 -13.700961 18.348846 -0.242221 2.213621 16.221187 -0.000002 0.000003 -0.000002 -4.380754 -23.900598 30.060298 -0.233913 5.125316 12.870320 0.000001 0.000001 0.000001 -0.000001 -0.000001 0.000001 -0.000001 -0.000001 0.000000 -0.000001 -0.000001 0.000000 0.000002 0.000001 -0.000000 0.000002 0.000002 0.000001 0.000002 0.000001 -0.000000 0.000002 0.000001 0.000003 0.000001 -0.000001 0.000001 0.000001 -0.000001 0.000001 0.000001 -0.000001 0.000001 0.000001 -0.000001 0.000001 0.000001 -0.000001 0.000001 0.000001 -0.000001 0.000001 0.000001 -0.000001 0.000001 0.000001 -0.000001 -0.000000 0.000000 0.000002 -0.000000 
-2.788210 81.991524 6.809550 168.426891 26.952705 -171.125650 0.000000 -0.000001 -0.000000 -64.219631 1.036096 -0.855362 65.948933 -0.440777 -2.195833 -1.151356 5.344964 2.212405 -0.000000 -0.000000 -0.000000 0.000001 0.000002 -0.000000 -14.680522 -28.225654 14.206191 51.935563 -0.533435 1.820158 -20.036761 0.337589 14.351269 -0.000000 0.000003 -0.000001 0.000003 0.000003 -0.000000 7.109677 2.378994 -5.053450 14.368797 4.082131 -9.604142 14.368800 4.082135 -9.604142 1.994090 -0.074319 -0.977338 1.994101 -0.074314 -0.977335 0.000002 0.000000 -0.000001 1.994064 -0.074311 -0.977342 1.994096 -0.074326 -0.977335 0.000003 0.000000 -0.000000 0.000002 0.000000 -0.000001 1.114583 -14.010191 -27.736418 -55.078161 -52.838463 -69.882882 5.344741 -126.069760 5.950457 -0.140561 -2.599667 35.262300 -19.464241 -17.592025 -12.978941 -1.061642 0.195093 1.948019 0.000002 -0.000001 -0.000001 5.776130 -9.584534 -10.641327 0.033759 0.666550 -10.636471 -0.000001 -0.000003 -0.000001 1.641883 7.127189 -4.239652 -0.187958 -0.789351 -15.969034 0.000000 0.000001 0.000000 1.677294 11.039964 -8.046047 -0.183055 -2.876861 -23.912180 0.000002 0.000001 0.000004 0.734583 28.047555 -16.218764 -0.849519 -6.142208 -29.148263 -0.000002 -0.000002 0.000001 0.000001 -0.000001 -0.000001 0.000001 -0.000001 -0.000001 0.000000 -0.000001 -0.000001 -0.000000 0.000001 -0.000000 -0.000001 0.000000 -0.000001 -0.000000 0.000001 -0.000000 -0.000002 -0.000000 0.000001 1.409618 11.399155 17.869366 -65.501118 42.064949 62.166715 -0.952007 123.600278 -3.095131 -19.776562 -1.613811 -23.554290 -4.978387 12.391675 9.407235 -1.210144 -0.220439 -2.120989 -0.000001 -0.000002 -0.000001 10.258619 13.576541 6.067462 0.012528 -0.647878 4.076597 -0.000002 0.000001 -0.000001 -1.738462 -1.670993 3.393801 -0.252732 0.798114 21.448242 -0.000001 0.000001 -0.000000 -0.824265 -13.700962 18.348834 -0.242207 2.213600 16.221199 -0.000002 -0.000003 -0.000001 -4.380745 -23.900592 30.060315 -0.233909 5.125294 12.870303 0.000004 0.000001 0.000001 0.000002 0.000003 0.000001 0.000001 -0.000000 0.000002 0.000002 0.000003 0.000001 -0.000001 -0.000002 0.000001 -0.000001 -0.000001 0.000003 -0.000001 -0.000002 0.000001 -0.000001 -0.000001 0.000002 0.000001 0.000001 0.000001 0.000001 0.000001 0.000001 0.000001 0.000001 0.000001 0.000001 0.000001 0.000001 0.000001 0.000001 0.000001 0.000001 0.000001 0.000001 0.000001 0.000001 0.000001 -0.000001 -0.000001 0.000001 0.000000 -0.000001 -0.000000 
-2.779257 82.093536 8.287809 166.340556 19.105409 -171.072797 -0.000000 0.000002 -0.000000 -61.297902 -0.936959 -1.634113 60.626432 -0.545240 -2.054890 -9.352791 1.031884 -0.270985 0.000000 -0.000000 -0.000000 0.000001 -0.000002 0.000001 -29.286236 -27.569324 5.054914 51.529491 0.156312 1.881872 -0.226974 19.494234 24.250640 -0.000000 0.000001 -0.000001 -0.000001 -0.000002 0.000000 7.425623 1.750019 -5.086653 14.927498 3.541510 -8.511043 14.927496 3.541513 -8.511042 1.595583 -0.074233 -0.811842 1.595616 -0.074231 -0.811845 0.000003 -0.000000 -0.000000 1.595636 -0.074228 -0.811843 1.595490 -0.074243 -0.811838 0.000002 0.000000 -0.000000 0.000003 -0.000000 0.000000 0.985656 -14.910096 -28.838640 -55.367153 -53.073329 -70.557186 6.270012 -126.707686 6.334223 -0.690743 -2.632470 34.666277 -19.438850 -17.259536 -13.835727 -1.019457 0.290448 1.963031 0.000003 -0.000002 -0.000003 5.776124 -9.584535 -10.641323 0.033762 0.666549 -10.636455 -0.000001 -0.000001 0.000000 1.641874 7.127198 -4.239652 -0.187957 -0.789347 -15.969035 -0.000001 0.000003 -0.000001 1.677303 11.039955 -8.046064 -0.183063 -2.876862 -23.912163 0.000002 -0.000001 -0.000001 0.734593 28.047566 -16.218776 -0.849525 -6.142205 -29.148263 -0.000000 -0.000004 0.000004 -0.000000 -0.000001 -0.000000 -0.000000 -0.000001 -0.000000 -0.000001 -0.000001 -0.000001 0.000003 -0.000002 -0.000001 0.000003 -0.000003 0.000000 0.000003 -0.000002 -0.000001 0.000003 -0.000002 -0.000001 1.408257 10.770036 17.573447 -65.250129 41.604533 63.034074 -1.216390 124.774183 -2.836856 -19.032001 -2.340190 -23.831252 -4.978394 12.391663 9.407270 -1.210138 -0.220436 -2.121012 0.000000 -0.000004 0.000002 10.258620 13.576542 6.067472 0.012521 -0.647891 4.076589 0.000002 0.000003 -0.000000 -1.738475 -1.670995 3.393792 -0.252708 0.798106 21.448288 -0.000002 -0.000001 0.000000 -0.824261 -13.700967 18.348856 -0.242228 2.213612 16.221175 -0.000003 -0.000001 0.000000 -4.380749 -23.900606 30.060308 -0.233915 5.125299 12.870315 -0.000000 0.000002 0.000000 0.000002 0.000001 -0.000001 -0.000001 0.000002 -0.000003 0.000002 0.000001 -0.000000 -0.000000 -0.000003 -0.000000 -0.000000 -0.000003 -0.000000 -0.000000 -0.000003 -0.000000 -0.000000 -0.000003 -0.000001 -0.000001 -0.000001 0.000000 -0.000001 -0.000001 0.000000 -0.000001 -0.000001 0.000000 -0.000001 -0.000001 0.000000 -0.000001 -0.000001 0.000000 -0.000001 -0.000001 0.000000 -0.000001 -0.000001 0.000000 -0.000001 0.000001 -0.000000 -0.000000 0.000002 -0.000000 
-2.675028 81.145752 9.895920 165.604890 10.337299 -171.924618 -0.000001 -0.000000 -0.000000 -63.957577 -0.903446 -1.760070 57.544241 -0.493626 -1.952058 -9.086801 -4.789293 -2.901301 0.000000 0.000002 0.000000 -0.000000 -0.000000 -0.000000 -41.430421 -25.568659 -3.414794 55.460494 -0.876707 1.897719 15.269943 31.280351 23.215159 -0.000003 0.000001 0.000002 0.000002 0.000000 -0.000001 8.012411 0.923690 -4.333567 16.048421 2.538538 -6.409511 16.048431 2.538541 -6.409514 1.278963 -0.126390 -0.568549 1.279001 -0.126390 -0.568548 -0.000001 0.000000 -0.000001 1.279003 -0.126390 -0.568551 1.279003 -0.126384 -0.568550 0.000003 0.000000 -0.000000 -0.000001 0.000000 -0.000001 0.936008 -15.330986 -28.932951 -55.731540 -53.035869 -71.032437 7.192526 -126.930979 6.939432 -2.469008 -3.437348 32.767091 -19.880674 -16.825234 -15.356968 -0.938059 0.474610 1.991831 -0.000001 -0.000003 -0.000003 5.776142 -9.584530 -10.641336 0.033754 0.666536 -10.636454 0.000002 0.000001 0.000003 1.641889 7.127211 -4.239672 -0.187957 -0.789341 -15.969032 -0.000000 0.000001 -0.000001 1.677307 11.039972 -8.046071 -0.183078 -2.876871 -23.912151 0.000001 -0.000004 -0.000001 0.734599 28.047576 -16.218788 -0.849516 -6.142218 -29.148242 0.000001 -0.000005 0.000001 0.000001 0.000003 -0.000000 0.000001 0.000003 -0.000000 0.000000 0.000003 -0.000001 0.000003 0.000001 0.000000 0.000003 0.000000 0.000000 0.000003 0.000001 0.000000 0.000002 0.000001 0.000001 1.427904 10.859132 17.725212 -64.788866 41.003036 62.292684 -1.562165 126.259366 -2.369677 -18.677998 -3.974089 -25.162301 -4.978383 12.391673 9.407265 -1.210150 -0.220433 -2.121025 -0.000001 -0.000001 0.000001 10.258624 13.576564 6.067475 0.012528 -0.647906 4.076601 -0.000001 0.000000 -0.000002 -1.738473 -1.670993 3.393796 -0.252717 0.798108 21.448268 0.000003 -0.000002 0.000004 -0.824255 -13.700955 18.348852 -0.242203 2.213623 16.221197 -0.000000 0.000001 -0.000000 -4.380742 -23.900618 30.060325 -0.233913 5.125293 12.870313 -0.000001 -0.000003 -0.000002 0.000000 0.000002 -0.000003 -0.000001 -0.000000 -0.000003 0.000000 0.000001 -0.000003 0.000001 -0.000001 0.000002 0.000001 0.000000 0.000002 0.000001 -0.000001 0.000002 0.000001 -0.000000 0.000001 0.000001 0.000000 -0.000000 0.000001 0.000000 -0.000000 0.000001 0.000000 -0.000000 0.000001 0.000000 -0.000000 0.000001 0.000000 -0.000000 0.000001 0.000000 -0.000000 0.000001 0.000000 -0.000000 0.000000 -0.000001 0.000001 -0.000001 -0.000000 -0.000000 
